<svg width="119" height="69" viewBox="0 0 119 69" fill="none" xmlns="http://www.w3.org/2000/svg">
<path d="M111.033 17.1871C105.719 13.4009 98.5026 10.4103 89.3839 8.21553C80.2653 6.02102 70.3032 4.9235 59.5009 4.9235C51.4433 4.9235 43.74 5.57152 36.3913 6.86783C29.0426 8.16401 22.7121 9.91603 17.3995 12.1235C12.0859 14.3312 7.85904 16.9559 4.71533 19.9975C1.57162 23.0393 -1.86258e-06 26.2289 -2.15432e-06 29.566C-2.49091e-06 33.4162 2.00261 37.024 6.00947 40.3867C10.0163 43.749 15.4941 46.573 22.4453 48.8576C21.9578 49.8841 21.3824 50.8598 20.7181 51.7832C20.0541 52.7073 19.4565 53.4655 18.9253 54.0558C18.3936 54.6461 17.6749 55.301 16.7666 56.0197C15.8597 56.7383 15.1736 57.2455 14.7086 57.5403C14.2441 57.8357 13.4805 58.3242 12.4174 59.0035C11.3556 59.6843 10.669 60.1268 10.3594 60.3326C10.3145 60.3446 10.1377 60.4609 9.82793 60.6787C9.51835 60.8966 9.36298 61.0055 9.36298 61.0055L8.96455 61.3516C8.74289 61.5446 8.64334 61.6664 8.6652 61.7167C8.68753 61.767 8.64334 61.8962 8.53262 62.1012C8.42168 62.307 8.43307 62.4611 8.56565 62.5642L8.56565 62.6025C8.74358 63.0649 9.13085 63.4369 9.72815 63.7187C10.3254 64.0009 11.0014 64.1166 11.7536 64.0644C14.6319 63.8591 17.155 63.5781 19.324 63.218C30.9233 61.4974 41.1059 58.3923 49.8712 53.8993C53.1907 54.1045 56.4005 54.2076 59.4995 54.2076C70.3016 54.2076 80.2632 53.11 89.3827 50.9146C98.5022 48.7201 105.718 45.7293 111.03 41.9438C116.344 38.1593 119 34.0323 119 29.5659C119 25.0993 116.344 20.9726 111.033 17.1871Z" fill="white"/>
</svg>
